<?xml version="1.0" encoding="UTF-8"?>
<svg width="188px" height="64px" viewBox="0 0 188 64" version="1.1" xmlns="http://www.w3.org/2000/svg" xmlns:xlink="http://www.w3.org/1999/xlink">
    <!-- Generator: Sketch 58 (84663) - https://sketch.com -->
    <title>Group 2</title>
    <desc>Created with Sketch.</desc>
    <g id="Page-1" stroke="none" stroke-width="1" fill="none" fill-rule="evenodd">
        <g id="Group-2" fill-rule="nonzero">
            <path d="M95.8017578,32.3828125 L82.6650391,32.3828125 L82.6650391,38.4501953 C82.6650391,40.4293719 82.7145177,41.7250946 82.8134766,42.3374023 C82.9124354,42.9497101 83.1629212,43.4042954 83.5649414,43.7011719 C83.9669616,43.9980484 84.7307886,44.1464844 85.8564453,44.1464844 L86.5058594,44.1464844 L86.5058594,45 L75.1875,45 L75.1875,44.1464844 L75.8369141,44.1464844 C76.9130913,44.1464844 77.6583638,44.010418 78.0727539,43.7382812 C78.487144,43.4661445 78.7530919,43.0424833 78.8706055,42.4672852 C78.9819342,41.9223606 79.0405274,40.6919037 79.0463867,38.7758804 L79.046875,26.1113281 C79.046875,24.1074119 78.9881191,22.8147816 78.8706055,22.2333984 C78.7530919,21.6520153 78.5056985,21.2500011 78.128418,21.0273438 C77.778086,20.8205905 77.041128,20.7098312 75.917524,20.6950634 L75.1875,20.6933594 L75.1875,19.8398438 L86.5058594,19.8398438 L86.5058594,20.6933594 L86.0419922,20.6933594 C84.8173767,20.6933594 84.0133483,20.7954091 83.6298828,20.9995117 C83.2464174,21.2036143 82.9897467,21.5839816 82.8598633,22.140625 C82.7368158,22.6679714 82.6720548,23.8836258 82.6655787,25.7876219 L82.6650391,31.1025391 L95.8017578,31.1025391 L95.8017578,26.1113281 C95.8017578,24.1074119 95.7460943,22.8147816 95.6347656,22.2333984 C95.5234369,21.6520153 95.279136,21.2500011 94.9018555,21.0273438 C94.5245749,20.8046864 93.6988996,20.6933594 92.4248047,20.6933594 L91.7568359,20.6933594 L91.7568359,19.8398438 L103.205078,19.8398438 L103.205078,20.6933594 L102.833984,20.6933594 C101.596999,20.6933594 100.786786,20.7954091 100.40332,20.9995117 C100.019855,21.2036143 99.7631842,21.5839816 99.6333008,22.140625 C99.5034173,22.6972684 99.4384766,24.0208229 99.4384766,26.1113281 L99.4384766,38.4501953 C99.4384766,40.4293719 99.4848628,41.7250946 99.5776367,42.3374023 C99.6704106,42.9497101 99.9208964,43.4042954 100.329102,43.7011719 C100.737307,43.9980484 101.504226,44.1464844 102.629883,44.1464844 L103.205078,44.1464844 L103.205078,45 L91.7568359,45 L91.7568359,44.1464844 L92.6289062,44.1464844 C93.6927137,44.1464844 94.4318013,44.010418 94.8461914,43.7382812 C95.2605815,43.4661445 95.5234369,43.0424833 95.6347656,42.4672852 L95.6680717,42.2602535 C95.7571962,41.6017249 95.8017578,40.3317151 95.8017578,38.4501953 L95.8017578,32.3828125 Z M119.663086,34.9433594 L109.068359,34.9433594 L109.035889,35.4559339 C109.008057,35.9337172 108.994141,36.3071276 108.994141,36.5761719 C108.994141,39.2480602 109.411617,41.2550389 110.246582,42.597168 C111.081547,43.9392971 112.327791,44.6103516 113.985352,44.6103516 C116.236665,44.6103516 117.832352,43.6022236 118.772461,41.5859375 L119.663086,41.5859375 C119.267251,42.8476626 118.481777,43.8341436 117.306641,44.5454102 C116.131505,45.2566767 114.851244,45.6123047 113.46582,45.6123047 C112.179356,45.6123047 110.964036,45.2876009 109.819824,44.6381836 C108.675613,43.9887663 107.73861,43.0703184 107.008789,41.8828125 C106.278968,40.6953066 105.914062,39.2542402 105.914062,37.5595703 C105.914062,35.1598187 106.619134,33.1652098 108.029297,31.5756836 C109.43946,29.9861574 111.202138,29.1914062 113.317383,29.1914062 C115.308929,29.1914062 116.848953,29.79752 117.9375,31.0097656 C119.026047,32.2220113 119.601237,33.5331961 119.663086,34.9433594 Z M116.416016,34.2011719 C116.453125,33.9166652 116.47168,33.6630871 116.47168,33.4404297 C116.47168,32.3518826 116.153161,31.5076527 115.516113,30.9077148 C114.879066,30.3077769 114.096684,30.0078125 113.168945,30.0078125 C110.917632,30.0078125 109.575523,31.405585 109.142578,34.2011719 L116.416016,34.2011719 Z M127.4375,33.0693359 C127.858075,31.968419 128.541499,31.0468787 129.487793,30.3046875 C130.434087,29.5624963 131.358719,29.1914062 132.261719,29.1914062 C133.078129,29.1914062 133.721352,29.4449844 134.191406,29.9521484 C134.661461,30.4593124 134.896484,30.9788385 134.896484,31.5107422 C134.896484,31.8694679 134.77588,32.1787096 134.534668,32.4384766 C134.293456,32.6982435 133.999676,32.828125 133.65332,32.828125 C133.07606,32.828125 132.628113,32.4294369 132.309466,31.6320494 L132.243164,31.4550781 C132.020507,30.8365854 131.686526,30.5273438 131.241211,30.5273438 C130.709307,30.5273438 130.072269,30.8891565 129.330078,31.612793 C128.587887,32.3364294 128.111655,33.0878867 127.901367,33.8671875 C127.69108,34.6464883 127.585938,35.7164646 127.585938,37.0771484 L127.586952,40.3656791 C127.591687,41.6523342 127.612996,42.4796531 127.650879,42.8476562 C127.694173,43.2682313 127.870441,43.5898426 128.179688,43.8125 C128.488934,44.0351574 129.039384,44.1464844 129.831055,44.1464844 L130.350586,44.1464844 L130.350586,45 L122.279297,45 L122.279297,44.1464844 L122.668945,44.1464844 C123.411137,44.1464844 123.93994,44.0444346 124.255371,43.840332 C124.570802,43.6362294 124.75944,43.3486347 124.821289,42.9775391 L124.841834,42.8178016 C124.889987,42.3465517 124.914062,41.3360027 124.914062,39.7861328 L124.913048,34.9162499 C124.908313,33.6208006 124.887004,32.7917905 124.849121,32.4291992 C124.805827,32.0148091 124.629559,31.6931978 124.320312,31.4643555 C124.011066,31.2355132 123.460616,31.1210938 122.668945,31.1210938 L122.279297,31.1210938 L122.279297,30.2861328 C123.442063,30.1500644 124.963532,29.7851592 126.84375,29.1914062 C127.202476,30.1686247 127.40039,31.461255 127.4375,33.0693359 Z M141.668945,29.1914062 L141.854492,29.1914062 C142.213218,30.0201864 142.392578,31.0839779 142.392578,32.3828125 C143.221358,31.3190051 144.115067,30.5211615 145.07373,29.9892578 C146.032394,29.4573541 147.062169,29.1914062 148.163086,29.1914062 C149.412441,29.1914062 150.426754,29.4759086 151.206055,30.0449219 C151.985355,30.6139351 152.529621,31.4674422 152.838867,32.6054688 C153.778976,31.4674422 154.74381,30.6139351 155.733398,30.0449219 C156.722987,29.4759086 157.731115,29.1914062 158.757812,29.1914062 C159.932949,29.1914062 160.928707,29.4635389 161.745117,30.0078125 C162.561528,30.5520861 163.056314,31.1705695 163.229492,31.8632812 C163.40267,32.555993 163.489258,33.675448 163.489258,35.2216797 L163.49067,40.3816829 C163.497733,41.7986488 163.531278,42.6762966 163.591309,43.0146484 C163.659343,43.3981139 163.857257,43.6826163 164.185059,43.8681641 C164.51286,44.0537119 165.122066,44.1464844 166.012695,44.1464844 L166.012695,45 L158.423828,45 L158.423828,44.1464844 C159.227869,44.1464844 159.793781,44.0568043 160.121582,43.8774414 C160.449383,43.6980785 160.65039,43.4259458 160.724609,43.0610352 C160.794705,42.7163973 160.8317,41.7235498 160.835594,40.0824651 L160.835938,34.7207031 C160.835938,33.6940053 160.777182,32.920901 160.659668,32.4013672 C160.542154,31.8818333 160.236005,31.4365253 159.741211,31.0654297 C159.246417,30.6943341 158.603194,30.5087891 157.811523,30.5087891 C157.007483,30.5087891 156.200362,30.7809218 155.390137,31.3251953 C154.579911,31.8694689 153.766606,32.6920518 152.950195,33.7929688 L152.952478,40.6340341 C152.959074,41.7669108 152.97996,42.501687 153.015137,42.8383789 C153.058431,43.252769 153.231607,43.5743804 153.534668,43.8032227 C153.837729,44.0320649 154.378902,44.1464844 155.158203,44.1464844 L155.158203,45 L147.810547,45 L147.810547,44.1464844 C148.639327,44.1464844 149.217609,44.0598967 149.54541,43.8867188 C149.873211,43.7135408 150.077311,43.4475929 150.157715,43.0888672 L150.183027,42.9418039 C150.246556,42.4763338 150.27832,41.4244512 150.27832,39.7861328 L150.27832,35.5742188 C150.27832,34.2382746 150.225749,33.2703481 150.120605,32.6704102 C150.015462,32.0704723 149.696943,31.557131 149.165039,31.1303711 C148.633135,30.7036111 147.971358,30.4902344 147.179688,30.4902344 C146.412757,30.4902344 145.630375,30.7376277 144.83252,31.2324219 C144.034664,31.727216 143.221358,32.4693961 142.392578,33.4589844 L142.394889,40.6112735 C142.40208,41.8031416 142.426049,42.5671514 142.466797,42.9033203 C142.516276,43.3115255 142.701821,43.6207672 143.023438,43.8310547 C143.345054,44.0413422 143.920243,44.1464844 144.749023,44.1464844 L144.749023,45 L137.308594,45 L137.308594,44.1464844 C138.125004,44.1464844 138.697101,44.0568043 139.024902,43.8774414 C139.352703,43.6980785 139.553711,43.4290383 139.62793,43.0703125 L139.651295,42.9234783 C139.709937,42.4592299 139.739258,41.4134558 139.739258,39.7861328 L139.738102,34.656883 C139.732324,33.2681665 139.704877,32.4019146 139.655762,32.0581055 C139.600097,31.6684551 139.408368,31.3746755 139.080566,31.1767578 C138.752765,30.9788402 138.162114,30.8798828 137.308594,30.8798828 L137.308594,30.0263672 C139.065113,29.8531892 140.518549,29.5748717 141.668945,29.1914062 Z M169.371094,21.4355469 C169.371094,20.9036432 169.559731,20.4459655 169.937012,20.0625 C170.314292,19.6790345 170.768878,19.4873047 171.300781,19.4873047 C171.832685,19.4873047 172.284178,19.6790345 172.655273,20.0625 C173.026369,20.4459655 173.211914,20.9036432 173.211914,21.4355469 C173.211914,21.9798204 173.026369,22.443683 172.655273,22.8271484 C172.284178,23.2106139 171.832685,23.4023438 171.300781,23.4023438 C170.768878,23.4023438 170.314292,23.2106139 169.937012,22.8271484 C169.559731,22.443683 169.371094,21.9798204 169.371094,21.4355469 Z M172.543945,29.1914062 L172.952148,29.1914062 L172.954758,40.6343603 C172.962295,41.7681792 172.986165,42.505939 173.026367,42.8476562 C173.075847,43.2682313 173.255207,43.5898426 173.564453,43.8125 C173.873699,44.0351574 174.42415,44.1464844 175.21582,44.1464844 L175.605469,44.1464844 L175.605469,45 L167.422852,45 L167.422852,44.1464844 L168.053711,44.1464844 C168.931971,44.1464844 169.504068,44.0196953 169.77002,43.7661133 C170.035971,43.5125313 170.190592,43.2094744 170.233887,42.8569336 L170.248268,42.7046437 C170.281975,42.2542598 170.298828,41.2814298 170.298828,39.7861328 L170.298828,35.1845703 C170.298828,33.4033114 170.215333,32.3147806 170.04834,31.9189453 C169.881347,31.52311 169.658693,31.2757166 169.380371,31.1767578 C169.132974,31.0887944 168.721873,31.0399264 168.147058,31.0301529 L167.422852,31.0283203 L167.422852,30.1748047 C169.624685,29.9521473 171.3317,29.6243511 172.543945,29.1914062 Z M186.756836,30.6572266 L182.173828,30.6572266 L182.173828,39.8417969 C182.173828,41.2519602 182.235676,42.2013322 182.359375,42.6899414 C182.483074,43.1785506 182.745929,43.5712876 183.147949,43.8681641 C183.549969,44.1650405 183.979815,44.3134766 184.4375,44.3134766 C185.328129,44.3134766 186.101234,43.8063202 186.756836,42.7919922 L187.350586,43.1445312 C186.96712,43.9609416 186.401208,44.5763326 185.652832,44.9907227 C184.904456,45.4051127 184.146814,45.6123047 183.379883,45.6123047 C182.489253,45.6123047 181.706872,45.3494492 181.032715,44.8237305 C180.358558,44.2980117 179.937989,43.6826207 179.770996,42.9775391 C179.604003,42.2724574 179.520508,41.0354906 179.520508,39.2666016 L179.520508,30.6572266 L177.3125,30.6572266 L177.3125,29.8037109 C178.326828,29.7789712 179.235999,29.3522177 180.040039,28.5234375 C180.84408,27.6946573 181.357421,26.5319085 181.580078,25.0351562 L182.173828,25.0351562 L182.173828,29.8037109 L186.756836,29.8037109 L186.756836,30.6572266 Z" id="Hermit" fill="#000000"></path>
            <g id="wizard-staff">
                <circle id="Oval" fill="#000000" cx="32" cy="32" r="32"></circle>
                <g id="Group" transform="translate(14.625000, 10.375000)" fill="#FFFFFF">
                    <path d="M27.8449,0.058875 C25.700275,0.0670125 23.5580125,0.5169375 21.626975,1.42615 C19.661725,2.3516375 17.854675,4.418825 16.5191625,6.9004125 C15.1835625,9.3819125 14.3157375,12.2608375 14.0962875,14.6660375 C13.441175,21.8508375 9.5527625,28.2593375 0.1155375,36.7650375 L0.0990875,38.6410375 C6.2814,33.6512625 10.7175625,28.6803 13.9023875,23.725 L13.9079,23.727625 C13.0947625,26.5690125 11.9283875,29.255875 10.093425,31.425 C7.3398,34.5386 4.0365,37.64625 0.077475,40.746375 L0.07205,41.46825 L2.25955,41.47385 L2.300675,41.47385 L2.412675,41.3727 C4.5481125,39.929125 6.6657875,38.6175 8.76465,37.74145 L8.7810125,37.7578125 L4.7178625,41.4765625 L7.24985,41.482075 C11.4824,37.8346375 15.537325,33.556325 18.592125,29.494575 C21.5309875,25.587 23.493875,21.854775 23.902325,19.270725 C23.791375,19.067725 23.679025,18.865775 23.582425,18.65 C21.9345375,14.96975 23.2085375,10.2129 27.1015,8.4944875 C29.965375,7.2301125 33.651225,8.21755 35.014825,11.2370875 C35.02795,11.266225 35.043175,11.2925625 35.05595,11.3219625 C36.219875,13.4273875 35.5962625,15.6514625 34.2382625,16.7443375 C33.5499875,17.2980375 32.6245875,17.5780375 31.7226375,17.3183375 C30.8205125,17.0588125 30.056375,16.2882875 29.5788875,15.1199875 L31.0908875,14.5020625 C31.4401875,15.3564125 31.84925,15.6526875 32.1737,15.7463125 C32.49815,15.8395875 32.8533125,15.7592625 33.2127625,15.4699875 C33.9316625,14.8916125 34.4624375,13.5528625 33.5982875,12.0548625 L33.5737875,12.0137375 L33.5545375,11.9699875 C32.6182875,9.7982375 29.8830375,9.05335 27.7602875,9.9903 C24.779775,11.3060375 23.7708125,15.06985 25.0752625,17.9829875 C26.871375,21.9945125 31.8976375,23.335975 35.783075,21.55955 C41.0468125,19.1533 42.79445,12.51835 40.4288,7.4009125 C38.2643125,2.7194 33.305425,0.1835625 28.27435,0.06465 C28.1314625,0.06115 27.98805,0.058875 27.845075,0.058875 L27.8449,0.058875 Z M25.591775,2.396875 C25.8751,2.3999375 26.1485375,2.427325 26.4148,2.47615 C27.3198125,2.642225 28.160075,3.0670375 28.9551,3.635525 C26.2755875,3.1597875 23.85175,4.039075 21.88685,5.80395 C19.92335,7.56725 18.46035,10.230575 17.8808375,13.216775 C17.473525,12.22295 17.2538125,11.33885 17.2958125,10.441275 C17.3217125,9.8862625 17.445875,9.307625 17.7140625,8.6722875 C18.5097875,7.0958875 19.5543625,5.7020125 20.7958125,4.5869125 C21.4804125,3.9721375 22.2299375,3.4432875 23.0296875,3.020225 C23.9862375,2.564175 24.8253625,2.388475 25.5918625,2.3967875 L25.591775,2.396875 Z M36.34885,7.8492625 C38.3248625,9.001375 39.3557875,11.5120125 39.2308375,14.0316625 C39.1814875,15.028725 38.9275625,16.041975 38.45165,16.9737625 C37.35965,18.63075 35.342775,19.2058875 34.079275,18.800325 L34.071225,18.77845 C36.5162375,17.8715125 37.499475,15.9454625 37.598525,13.949325 C37.609375,13.730575 37.6085875,13.51235 37.5959,13.295875 C37.7225125,12.13125 37.55985,10.7764875 37.117275,9.4951375 C36.920925,8.9267375 36.66665,8.3672625 36.343425,7.8571375 L36.349025,7.849 L36.34885,7.8492625 Z M24.487175,7.9640625 C22.6522125,9.6564875 21.9140625,11.0486125 21.5777125,12.4484375 C21.2410125,13.85045 21.3337625,15.3219375 21.323525,17.075 C21.311275,19.156625 21.099525,21.584925 19.7102,24.5727 C19.7097625,24.57375 19.7080125,24.574275 19.707575,24.575325 C17.8617625,26.9162125 15.745925,29.1472 13.6782125,30.470725 L13.6727,30.4681 C19.2897625,24.2079125 19.6688125,20.4238 19.688325,17.063975 C19.698125,15.3842375 19.5786875,13.7745 19.98915,12.065625 C20.039025,11.85825 20.0970375,11.6507 20.16415,11.4421875 L20.166775,11.4421875 C20.87535,9.9515375 21.616825,9.1621125 22.3954,8.680425 C23.02365,8.291925 23.7109625,8.0944375 24.487175,7.9640625 L24.487175,7.9640625 Z" id="Shape"></path>
                </g>
            </g>
        </g>
    </g>
</svg>